<?xml version="1.0" encoding="UTF-8"?>
<svg width="20px" height="27px" viewBox="0 0 20 27" version="1.1" xmlns="http://www.w3.org/2000/svg" xmlns:xlink="http://www.w3.org/1999/xlink">
    <!-- Generator: sketchtool 53.2 (72643) - https://sketchapp.com -->
    <title>679DBAC8-6917-4F71-9E33-7430275E963F</title>
    <desc>Created with sketchtool.</desc>
    <g id="Page-1" stroke="none" stroke-width="1" fill="none" fill-rule="evenodd">
        <g id="address" transform="translate(-695.000000, -305.000000)" fill="#7ED321" fill-rule="nonzero">
            <g id="Group-5" transform="translate(695.000000, 305.000000)">
                <g id="ic_map-marker-alt">
                    <path d="M10,0 C4.47411458,0 0,4.53589673 0,10.1250049 C0,13.8753173 1.24953125,15.0472866 7.87869792,25.8094813 C8.85708333,27.3977887 11.1440104,27.3958902 12.12125,25.8094813 C18.7539062,15.041644 20,13.874579 20,10.1250049 C20,4.53004321 15.5201042,0 10,0 Z M10,24.4687619 C3.36333333,13.6943855 2.5,13.0142172 2.5,10.1250049 C2.5,5.93109076 5.85786458,2.53125123 10,2.53125123 C14.1421354,2.53125123 17.5,5.93109076 17.5,10.1250049 C17.5,13.0018247 16.7101042,13.5751531 10,24.4687619 Z M5.83333333,10.1250049 C5.83333333,7.79504088 7.69880208,5.90625286 10,5.90625286 C12.3011979,5.90625286 14.1666667,7.79504088 14.1666667,10.1250049 C14.1666667,12.4549689 12.3011979,14.3437569 10,14.3437569 C7.69880208,14.3437569 5.83333333,12.4549689 5.83333333,10.1250049 Z" id="Shape"></path>
                </g>
            </g>
        </g>
    </g>
</svg>