<?xml version="1.0" encoding="UTF-8"?>
<svg width="53px" height="45px" viewBox="0 0 53 45" version="1.1" xmlns="http://www.w3.org/2000/svg" xmlns:xlink="http://www.w3.org/1999/xlink">
    <!-- Generator: sketchtool 53.2 (72643) - https://sketchapp.com -->
    <title>2CF17CD7-8677-4F19-83B4-0ADD3CE944E4</title>
    <desc>Created with sketchtool.</desc>
    <g id="Page-1" stroke="none" stroke-width="1" fill="none" fill-rule="evenodd">
        <g id="address" transform="translate(-489.000000, -1332.000000)" fill="#FFFFFF" fill-rule="nonzero">
            <g id="Group-4" transform="translate(441.000000, 1305.000000)">
                <g id="ic_robot" transform="translate(48.000000, 27.000000)">
                    <path d="M18.1315789,18.984375 C16.2050987,18.984375 14.6447368,20.5576172 14.6447368,22.5 C14.6447368,24.4423828 16.2050987,26.015625 18.1315789,26.015625 C20.0580592,26.015625 21.6184211,24.4423828 21.6184211,22.5 C21.6184211,20.5576172 20.0580592,18.984375 18.1315789,18.984375 Z M15.3421053,35.859375 L20.9210526,35.859375 L20.9210526,31.640625 L15.3421053,31.640625 L15.3421053,35.859375 Z M23.7105263,35.859375 L29.2894737,35.859375 L29.2894737,31.640625 L23.7105263,31.640625 L23.7105263,35.859375 Z M48.8157895,19.6875 L46.0263158,19.6875 L46.0263158,16.875 C46.0263158,12.2167969 42.2779605,8.4375 37.6578947,8.4375 L28.5921053,8.4375 L28.5921053,2.109375 C28.5921053,0.940429688 27.659375,0 26.5,0 C25.340625,0 24.4078947,0.940429688 24.4078947,2.109375 L24.4078947,8.4375 L15.3421053,8.4375 C10.7220395,8.4375 6.97368421,12.2167969 6.97368421,16.875 L6.97368421,19.6875 L4.18421053,19.6875 C1.87417763,19.6875 0,21.5771484 0,23.90625 L0,32.34375 C0,34.6728516 1.87417763,36.5625 4.18421053,36.5625 L6.97368421,36.5625 L6.97368421,39.375 C6.97368421,42.4775391 9.47549342,45 12.5526316,45 L40.4473684,45 C43.5245066,45 46.0263158,42.4775391 46.0263158,39.375 L46.0263158,36.5625 L48.8157895,36.5625 C51.1258224,36.5625 53,34.6728516 53,32.34375 L53,23.90625 C53,21.5771484 51.1258224,19.6875 48.8157895,19.6875 Z M6.97368421,32.34375 L4.18421053,32.34375 L4.18421053,23.90625 L6.97368421,23.90625 L6.97368421,32.34375 Z M41.8421053,39.375 C41.8421053,40.1484375 41.2144737,40.78125 40.4473684,40.78125 L12.5526316,40.78125 C11.7855263,40.78125 11.1578947,40.1484375 11.1578947,39.375 L11.1578947,16.875 C11.1578947,14.5458984 13.0320724,12.65625 15.3421053,12.65625 L37.6578947,12.65625 C39.9679276,12.65625 41.8421053,14.5458984 41.8421053,16.875 L41.8421053,39.375 Z M48.8157895,32.34375 L46.0263158,32.34375 L46.0263158,23.90625 L48.8157895,23.90625 L48.8157895,32.34375 Z M32.0789474,35.859375 L37.6578947,35.859375 L37.6578947,31.640625 L32.0789474,31.640625 L32.0789474,35.859375 Z M34.8684211,18.984375 C32.9419408,18.984375 31.3815789,20.5576172 31.3815789,22.5 C31.3815789,24.4423828 32.9419408,26.015625 34.8684211,26.015625 C36.7949013,26.015625 38.3552632,24.4423828 38.3552632,22.5 C38.3552632,20.5576172 36.7949013,18.984375 34.8684211,18.984375 Z" id="Shape"></path>
                </g>
            </g>
        </g>
    </g>
</svg>